<svg width="392" height="272" viewBox="0 0 392 272" fill="none" xmlns="http://www.w3.org/2000/svg">
<path d="M-12 0H-8V4H-12V0Z" fill="#8B8B9C"/>
<path d="M8 0H12V4H8V0Z" fill="#8B8B9C"/>
<path d="M28 0H32V4H28V0Z" fill="#8B8B9C"/>
<path d="M48 0H52V4H48V0Z" fill="#8B8B9C"/>
<path d="M68 0H72V4H68V0Z" fill="#8B8B9C"/>
<path d="M88 0H92V4H88V0Z" fill="#8B8B9C"/>
<path d="M108 0H112V4H108V0Z" fill="#8B8B9C"/>
<path d="M128 0H132V4H128V0Z" fill="#8B8B9C"/>
<path d="M148 0H152V4H148V0Z" fill="#8B8B9C"/>
<path d="M168 0H172V4H168V0Z" fill="#8B8B9C"/>
<path d="M188 0H192V4H188V0Z" fill="#8B8B9C"/>
<path d="M208 0H212V4H208V0Z" fill="#8B8B9C"/>
<path d="M228 0H232V4H228V0Z" fill="#8B8B9C"/>
<path d="M248 0H252V4H248V0Z" fill="#8B8B9C"/>
<path d="M268 0H272V4H268V0Z" fill="#8B8B9C"/>
<path d="M288 0H292V4H288V0Z" fill="#8B8B9C"/>
<path d="M308 0H312V4H308V0Z" fill="#8B8B9C"/>
<path d="M328 0H332V4H328V0Z" fill="#8B8B9C"/>
<path d="M348 0H352V4H348V0Z" fill="#8B8B9C"/>
<path d="M368 0H372V4H368V0Z" fill="#8B8B9C"/>
<path d="M388 0H392V4H388V0Z" fill="#8B8B9C"/>
<path d="M-12 20H-8V24H-12V20Z" fill="#8B8B9C"/>
<path d="M8 20H12V24H8V20Z" fill="#8B8B9C"/>
<path d="M28 20H32V24H28V20Z" fill="#8B8B9C"/>
<path d="M48 20H52V24H48V20Z" fill="#8B8B9C"/>
<path d="M68 20H72V24H68V20Z" fill="#8B8B9C"/>
<path d="M88 20H92V24H88V20Z" fill="#8B8B9C"/>
<path d="M108 20H112V24H108V20Z" fill="#8B8B9C"/>
<path d="M128 20H132V24H128V20Z" fill="#8B8B9C"/>
<path d="M148 20H152V24H148V20Z" fill="#8B8B9C"/>
<path d="M168 20H172V24H168V20Z" fill="#8B8B9C"/>
<path d="M188 20H192V24H188V20Z" fill="#8B8B9C"/>
<path d="M208 20H212V24H208V20Z" fill="#8B8B9C"/>
<path d="M228 20H232V24H228V20Z" fill="#8B8B9C"/>
<path d="M248 20H252V24H248V20Z" fill="#8B8B9C"/>
<path d="M268 20H272V24H268V20Z" fill="#8B8B9C"/>
<path d="M288 20H292V24H288V20Z" fill="#8B8B9C"/>
<path d="M308 20H312V24H308V20Z" fill="#8B8B9C"/>
<path d="M328 20H332V24H328V20Z" fill="#8B8B9C"/>
<path d="M348 20H352V24H348V20Z" fill="#8B8B9C"/>
<path d="M368 20H372V24H368V20Z" fill="#8B8B9C"/>
<path d="M388 20H392V24H388V20Z" fill="#8B8B9C"/>
<path d="M-12 40H-8V44H-12V40Z" fill="#8B8B9C"/>
<path d="M8 40H12V44H8V40Z" fill="#8B8B9C"/>
<path d="M28 40H32V44H28V40Z" fill="#8B8B9C"/>
<path d="M48 40H52V44H48V40Z" fill="#8B8B9C"/>
<path d="M68 40H72V44H68V40Z" fill="#8B8B9C"/>
<path d="M88 40H92V44H88V40Z" fill="#8B8B9C"/>
<path d="M108 40H112V44H108V40Z" fill="#8B8B9C"/>
<path d="M128 40H132V44H128V40Z" fill="#8B8B9C"/>
<path d="M148 40H152V44H148V40Z" fill="#8B8B9C"/>
<path d="M168 40H172V44H168V40Z" fill="#8B8B9C"/>
<path d="M188 40H192V44H188V40Z" fill="#8B8B9C"/>
<path d="M208 40H212V44H208V40Z" fill="#8B8B9C"/>
<path d="M228 40H232V44H228V40Z" fill="#8B8B9C"/>
<path d="M248 40H252V44H248V40Z" fill="#8B8B9C"/>
<path d="M268 40H272V44H268V40Z" fill="#8B8B9C"/>
<path d="M288 40H292V44H288V40Z" fill="#8B8B9C"/>
<path d="M308 40H312V44H308V40Z" fill="#8B8B9C"/>
<path d="M328 40H332V44H328V40Z" fill="#8B8B9C"/>
<path d="M348 40H352V44H348V40Z" fill="#8B8B9C"/>
<path d="M368 40H372V44H368V40Z" fill="#8B8B9C"/>
<path d="M388 40H392V44H388V40Z" fill="#8B8B9C"/>
<path d="M-12 60H-8V64H-12V60Z" fill="#8B8B9C"/>
<path d="M8 60H12V64H8V60Z" fill="#8B8B9C"/>
<path d="M28 60H32V64H28V60Z" fill="#8B8B9C"/>
<path d="M48 60H52V64H48V60Z" fill="#8B8B9C"/>
<path d="M68 60H72V64H68V60Z" fill="#8B8B9C"/>
<path d="M88 60H92V64H88V60Z" fill="#8B8B9C"/>
<path d="M108 60H112V64H108V60Z" fill="#8B8B9C"/>
<path d="M128 60H132V64H128V60Z" fill="#8B8B9C"/>
<path d="M148 60H152V64H148V60Z" fill="#8B8B9C"/>
<path d="M168 60H172V64H168V60Z" fill="#8B8B9C"/>
<path d="M188 60H192V64H188V60Z" fill="#8B8B9C"/>
<path d="M208 60H212V64H208V60Z" fill="#8B8B9C"/>
<path d="M228 60H232V64H228V60Z" fill="#8B8B9C"/>
<path d="M248 60H252V64H248V60Z" fill="#8B8B9C"/>
<path d="M268 60H272V64H268V60Z" fill="#8B8B9C"/>
<path d="M288 60H292V64H288V60Z" fill="#8B8B9C"/>
<path d="M308 60H312V64H308V60Z" fill="#8B8B9C"/>
<path d="M328 60H332V64H328V60Z" fill="#8B8B9C"/>
<path d="M348 60H352V64H348V60Z" fill="#8B8B9C"/>
<path d="M368 60H372V64H368V60Z" fill="#8B8B9C"/>
<path d="M388 60H392V64H388V60Z" fill="#8B8B9C"/>
<path d="M-12 80H-8V84H-12V80Z" fill="#8B8B9C"/>
<path d="M8 80H12V84H8V80Z" fill="#8B8B9C"/>
<path d="M28 80H32V84H28V80Z" fill="#8B8B9C"/>
<path d="M48 80H52V84H48V80Z" fill="#8B8B9C"/>
<path d="M68 80H72V84H68V80Z" fill="#8B8B9C"/>
<path d="M88 80H92V84H88V80Z" fill="#8B8B9C"/>
<path d="M108 80H112V84H108V80Z" fill="#8B8B9C"/>
<path d="M128 80H132V84H128V80Z" fill="#8B8B9C"/>
<path d="M148 80H152V84H148V80Z" fill="#8B8B9C"/>
<path d="M168 80H172V84H168V80Z" fill="#8B8B9C"/>
<path d="M188 80H192V84H188V80Z" fill="#8B8B9C"/>
<path d="M208 80H212V84H208V80Z" fill="#8B8B9C"/>
<path d="M228 80H232V84H228V80Z" fill="#8B8B9C"/>
<path d="M248 80H252V84H248V80Z" fill="#8B8B9C"/>
<path d="M268 80H272V84H268V80Z" fill="#8B8B9C"/>
<path d="M288 80H292V84H288V80Z" fill="#8B8B9C"/>
<path d="M308 80H312V84H308V80Z" fill="#8B8B9C"/>
<path d="M328 80H332V84H328V80Z" fill="#8B8B9C"/>
<path d="M348 80H352V84H348V80Z" fill="#8B8B9C"/>
<path d="M368 80H372V84H368V80Z" fill="#8B8B9C"/>
<path d="M388 80H392V84H388V80Z" fill="#8B8B9C"/>
<path d="M-12 100H-8V104H-12V100Z" fill="#8B8B9C"/>
<path d="M8 100H12V104H8V100Z" fill="#8B8B9C"/>
<path d="M28 100H32V104H28V100Z" fill="#8B8B9C"/>
<path d="M48 100H52V104H48V100Z" fill="#8B8B9C"/>
<path d="M68 100H72V104H68V100Z" fill="#8B8B9C"/>
<path d="M88 100H92V104H88V100Z" fill="#8B8B9C"/>
<path d="M108 100H112V104H108V100Z" fill="#8B8B9C"/>
<path d="M128 100H132V104H128V100Z" fill="#8B8B9C"/>
<path d="M148 100H152V104H148V100Z" fill="#8B8B9C"/>
<path d="M168 100H172V104H168V100Z" fill="#8B8B9C"/>
<path d="M188 100H192V104H188V100Z" fill="#8B8B9C"/>
<path d="M208 100H212V104H208V100Z" fill="#8B8B9C"/>
<path d="M228 100H232V104H228V100Z" fill="#8B8B9C"/>
<path d="M248 100H252V104H248V100Z" fill="#8B8B9C"/>
<path d="M268 100H272V104H268V100Z" fill="#8B8B9C"/>
<path d="M288 100H292V104H288V100Z" fill="#8B8B9C"/>
<path d="M308 100H312V104H308V100Z" fill="#8B8B9C"/>
<path d="M328 100H332V104H328V100Z" fill="#8B8B9C"/>
<path d="M348 100H352V104H348V100Z" fill="#8B8B9C"/>
<path d="M368 100H372V104H368V100Z" fill="#8B8B9C"/>
<path d="M388 100H392V104H388V100Z" fill="#8B8B9C"/>
<path d="M-12 120H-8V124H-12V120Z" fill="#8B8B9C"/>
<path d="M8 120H12V124H8V120Z" fill="#8B8B9C"/>
<path d="M28 120H32V124H28V120Z" fill="#8B8B9C"/>
<path d="M48 120H52V124H48V120Z" fill="#8B8B9C"/>
<path d="M68 120H72V124H68V120Z" fill="#8B8B9C"/>
<path d="M88 120H92V124H88V120Z" fill="#8B8B9C"/>
<path d="M108 120H112V124H108V120Z" fill="#8B8B9C"/>
<path d="M128 120H132V124H128V120Z" fill="#8B8B9C"/>
<path d="M148 120H152V124H148V120Z" fill="#8B8B9C"/>
<path d="M168 120H172V124H168V120Z" fill="#8B8B9C"/>
<path d="M188 120H192V124H188V120Z" fill="#8B8B9C"/>
<path d="M208 120H212V124H208V120Z" fill="#8B8B9C"/>
<path d="M228 120H232V124H228V120Z" fill="#8B8B9C"/>
<path d="M248 120H252V124H248V120Z" fill="#8B8B9C"/>
<path d="M268 120H272V124H268V120Z" fill="#8B8B9C"/>
<path d="M288 120H292V124H288V120Z" fill="#8B8B9C"/>
<path d="M308 120H312V124H308V120Z" fill="#8B8B9C"/>
<path d="M328 120H332V124H328V120Z" fill="#8B8B9C"/>
<path d="M348 120H352V124H348V120Z" fill="#8B8B9C"/>
<path d="M368 120H372V124H368V120Z" fill="#8B8B9C"/>
<path d="M388 120H392V124H388V120Z" fill="#8B8B9C"/>
<path d="M-12 140H-8V144H-12V140Z" fill="#8B8B9C"/>
<path d="M8 140H12V144H8V140Z" fill="#8B8B9C"/>
<path d="M28 140H32V144H28V140Z" fill="#8B8B9C"/>
<path d="M48 140H52V144H48V140Z" fill="#8B8B9C"/>
<path d="M68 140H72V144H68V140Z" fill="#8B8B9C"/>
<path d="M88 140H92V144H88V140Z" fill="#8B8B9C"/>
<path d="M108 140H112V144H108V140Z" fill="#8B8B9C"/>
<path d="M128 140H132V144H128V140Z" fill="#8B8B9C"/>
<path d="M148 140H152V144H148V140Z" fill="#8B8B9C"/>
<path d="M168 140H172V144H168V140Z" fill="#8B8B9C"/>
<path d="M188 140H192V144H188V140Z" fill="#8B8B9C"/>
<path d="M208 140H212V144H208V140Z" fill="#8B8B9C"/>
<path d="M228 140H232V144H228V140Z" fill="#8B8B9C"/>
<path d="M248 140H252V144H248V140Z" fill="#8B8B9C"/>
<path d="M268 140H272V144H268V140Z" fill="#8B8B9C"/>
<path d="M288 140H292V144H288V140Z" fill="#8B8B9C"/>
<path d="M308 140H312V144H308V140Z" fill="#8B8B9C"/>
<path d="M328 140H332V144H328V140Z" fill="#8B8B9C"/>
<path d="M348 140H352V144H348V140Z" fill="#8B8B9C"/>
<path d="M368 140H372V144H368V140Z" fill="#8B8B9C"/>
<path d="M388 140H392V144H388V140Z" fill="#8B8B9C"/>
<path d="M-12 160H-8V164H-12V160Z" fill="#8B8B9C"/>
<path d="M8 160H12V164H8V160Z" fill="#8B8B9C"/>
<path d="M28 160H32V164H28V160Z" fill="#8B8B9C"/>
<path d="M48 160H52V164H48V160Z" fill="#8B8B9C"/>
<path d="M68 160H72V164H68V160Z" fill="#8B8B9C"/>
<path d="M88 160H92V164H88V160Z" fill="#8B8B9C"/>
<path d="M108 160H112V164H108V160Z" fill="#8B8B9C"/>
<path d="M128 160H132V164H128V160Z" fill="#8B8B9C"/>
<path d="M148 160H152V164H148V160Z" fill="#8B8B9C"/>
<path d="M168 160H172V164H168V160Z" fill="#8B8B9C"/>
<path d="M188 160H192V164H188V160Z" fill="#8B8B9C"/>
<path d="M208 160H212V164H208V160Z" fill="#8B8B9C"/>
<path d="M228 160H232V164H228V160Z" fill="#8B8B9C"/>
<path d="M248 160H252V164H248V160Z" fill="#8B8B9C"/>
<path d="M268 160H272V164H268V160Z" fill="#8B8B9C"/>
<path d="M288 160H292V164H288V160Z" fill="#8B8B9C"/>
<path d="M308 160H312V164H308V160Z" fill="#8B8B9C"/>
<path d="M328 160H332V164H328V160Z" fill="#8B8B9C"/>
<path d="M348 160H352V164H348V160Z" fill="#8B8B9C"/>
<path d="M368 160H372V164H368V160Z" fill="#8B8B9C"/>
<path d="M388 160H392V164H388V160Z" fill="#8B8B9C"/>
<path d="M-12 180H-8V184H-12V180Z" fill="#8B8B9C"/>
<path d="M8 180H12V184H8V180Z" fill="#8B8B9C"/>
<path d="M28 180H32V184H28V180Z" fill="#8B8B9C"/>
<path d="M48 180H52V184H48V180Z" fill="#8B8B9C"/>
<path d="M68 180H72V184H68V180Z" fill="#8B8B9C"/>
<path d="M88 180H92V184H88V180Z" fill="#8B8B9C"/>
<path d="M108 180H112V184H108V180Z" fill="#8B8B9C"/>
<path d="M128 180H132V184H128V180Z" fill="#8B8B9C"/>
<path d="M148 180H152V184H148V180Z" fill="#8B8B9C"/>
<path d="M168 180H172V184H168V180Z" fill="#8B8B9C"/>
<path d="M188 180H192V184H188V180Z" fill="#8B8B9C"/>
<path d="M208 180H212V184H208V180Z" fill="#8B8B9C"/>
<path d="M228 180H232V184H228V180Z" fill="#8B8B9C"/>
<path d="M248 180H252V184H248V180Z" fill="#8B8B9C"/>
<path d="M268 180H272V184H268V180Z" fill="#8B8B9C"/>
<path d="M288 180H292V184H288V180Z" fill="#8B8B9C"/>
<path d="M308 180H312V184H308V180Z" fill="#8B8B9C"/>
<path d="M328 180H332V184H328V180Z" fill="#8B8B9C"/>
<path d="M348 180H352V184H348V180Z" fill="#8B8B9C"/>
<path d="M368 180H372V184H368V180Z" fill="#8B8B9C"/>
<path d="M388 180H392V184H388V180Z" fill="#8B8B9C"/>
<path d="M-12 200H-8V204H-12V200Z" fill="#8B8B9C"/>
<path d="M8 200H12V204H8V200Z" fill="#8B8B9C"/>
<path d="M28 200H32V204H28V200Z" fill="#8B8B9C"/>
<path d="M48 200H52V204H48V200Z" fill="#8B8B9C"/>
<path d="M68 200H72V204H68V200Z" fill="#8B8B9C"/>
<path d="M88 200H92V204H88V200Z" fill="#8B8B9C"/>
<path d="M108 200H112V204H108V200Z" fill="#8B8B9C"/>
<path d="M128 200H132V204H128V200Z" fill="#8B8B9C"/>
<path d="M148 200H152V204H148V200Z" fill="#8B8B9C"/>
<path d="M168 200H172V204H168V200Z" fill="#8B8B9C"/>
<path d="M188 200H192V204H188V200Z" fill="#8B8B9C"/>
<path d="M208 200H212V204H208V200Z" fill="#8B8B9C"/>
<path d="M228 200H232V204H228V200Z" fill="#8B8B9C"/>
<path d="M248 200H252V204H248V200Z" fill="#8B8B9C"/>
<path d="M268 200H272V204H268V200Z" fill="#8B8B9C"/>
<path d="M288 200H292V204H288V200Z" fill="#8B8B9C"/>
<path d="M308 200H312V204H308V200Z" fill="#8B8B9C"/>
<path d="M328 200H332V204H328V200Z" fill="#8B8B9C"/>
<path d="M348 200H352V204H348V200Z" fill="#8B8B9C"/>
<path d="M368 200H372V204H368V200Z" fill="#8B8B9C"/>
<path d="M388 200H392V204H388V200Z" fill="#8B8B9C"/>
<path d="M-12 220H-8V224H-12V220Z" fill="#8B8B9C"/>
<path d="M8 220H12V224H8V220Z" fill="#8B8B9C"/>
<path d="M28 220H32V224H28V220Z" fill="#8B8B9C"/>
<path d="M48 220H52V224H48V220Z" fill="#8B8B9C"/>
<path d="M68 220H72V224H68V220Z" fill="#8B8B9C"/>
<path d="M88 220H92V224H88V220Z" fill="#8B8B9C"/>
<path d="M108 220H112V224H108V220Z" fill="#8B8B9C"/>
<path d="M128 220H132V224H128V220Z" fill="#8B8B9C"/>
<path d="M148 220H152V224H148V220Z" fill="#8B8B9C"/>
<path d="M168 220H172V224H168V220Z" fill="#8B8B9C"/>
<path d="M188 220H192V224H188V220Z" fill="#8B8B9C"/>
<path d="M208 220H212V224H208V220Z" fill="#8B8B9C"/>
<path d="M228 220H232V224H228V220Z" fill="#8B8B9C"/>
<path d="M248 220H252V224H248V220Z" fill="#8B8B9C"/>
<path d="M268 220H272V224H268V220Z" fill="#8B8B9C"/>
<path d="M288 220H292V224H288V220Z" fill="#8B8B9C"/>
<path d="M308 220H312V224H308V220Z" fill="#8B8B9C"/>
<path d="M328 220H332V224H328V220Z" fill="#8B8B9C"/>
<path d="M348 220H352V224H348V220Z" fill="#8B8B9C"/>
<path d="M368 220H372V224H368V220Z" fill="#8B8B9C"/>
<path d="M388 220H392V224H388V220Z" fill="#8B8B9C"/>
<path d="M-12 240H-8V244H-12V240Z" fill="#8B8B9C"/>
<path d="M8 240H12V244H8V240Z" fill="#8B8B9C"/>
<path d="M28 240H32V244H28V240Z" fill="#8B8B9C"/>
<path d="M48 240H52V244H48V240Z" fill="#8B8B9C"/>
<path d="M68 240H72V244H68V240Z" fill="#8B8B9C"/>
<path d="M88 240H92V244H88V240Z" fill="#8B8B9C"/>
<path d="M108 240H112V244H108V240Z" fill="#8B8B9C"/>
<path d="M128 240H132V244H128V240Z" fill="#8B8B9C"/>
<path d="M148 240H152V244H148V240Z" fill="#8B8B9C"/>
<path d="M168 240H172V244H168V240Z" fill="#8B8B9C"/>
<path d="M188 240H192V244H188V240Z" fill="#8B8B9C"/>
<path d="M208 240H212V244H208V240Z" fill="#8B8B9C"/>
<path d="M228 240H232V244H228V240Z" fill="#8B8B9C"/>
<path d="M248 240H252V244H248V240Z" fill="#8B8B9C"/>
<path d="M268 240H272V244H268V240Z" fill="#8B8B9C"/>
<path d="M288 240H292V244H288V240Z" fill="#8B8B9C"/>
<path d="M308 240H312V244H308V240Z" fill="#8B8B9C"/>
<path d="M328 240H332V244H328V240Z" fill="#8B8B9C"/>
<path d="M348 240H352V244H348V240Z" fill="#8B8B9C"/>
<path d="M368 240H372V244H368V240Z" fill="#8B8B9C"/>
<path d="M388 240H392V244H388V240Z" fill="#8B8B9C"/>
<path d="M-12 260H-8V264H-12V260Z" fill="#8B8B9C"/>
<path d="M8 260H12V264H8V260Z" fill="#8B8B9C"/>
<path d="M28 260H32V264H28V260Z" fill="#8B8B9C"/>
<path d="M48 260H52V264H48V260Z" fill="#8B8B9C"/>
<path d="M68 260H72V264H68V260Z" fill="#8B8B9C"/>
<path d="M88 260H92V264H88V260Z" fill="#8B8B9C"/>
<path d="M108 260H112V264H108V260Z" fill="#8B8B9C"/>
<path d="M128 260H132V264H128V260Z" fill="#8B8B9C"/>
<path d="M148 260H152V264H148V260Z" fill="#8B8B9C"/>
<path d="M168 260H172V264H168V260Z" fill="#8B8B9C"/>
<path d="M188 260H192V264H188V260Z" fill="#8B8B9C"/>
<path d="M208 260H212V264H208V260Z" fill="#8B8B9C"/>
<path d="M228 260H232V264H228V260Z" fill="#8B8B9C"/>
<path d="M248 260H252V264H248V260Z" fill="#8B8B9C"/>
<path d="M268 260H272V264H268V260Z" fill="#8B8B9C"/>
<path d="M288 260H292V264H288V260Z" fill="#8B8B9C"/>
<path d="M308 260H312V264H308V260Z" fill="#8B8B9C"/>
<path d="M328 260H332V264H328V260Z" fill="#8B8B9C"/>
<path d="M348 260H352V264H348V260Z" fill="#8B8B9C"/>
<path d="M368 260H372V264H368V260Z" fill="#8B8B9C"/>
<path d="M388 260H392V264H388V260Z" fill="#8B8B9C"/>
<path d="M-12 280H-8V284H-12V280Z" fill="#8B8B9C"/>
<path d="M8 280H12V284H8V280Z" fill="#8B8B9C"/>
<path d="M28 280H32V284H28V280Z" fill="#8B8B9C"/>
<path d="M48 280H52V284H48V280Z" fill="#8B8B9C"/>
<path d="M68 280H72V284H68V280Z" fill="#8B8B9C"/>
<path d="M88 280H92V284H88V280Z" fill="#8B8B9C"/>
<path d="M108 280H112V284H108V280Z" fill="#8B8B9C"/>
<path d="M128 280H132V284H128V280Z" fill="#8B8B9C"/>
<path d="M148 280H152V284H148V280Z" fill="#8B8B9C"/>
<path d="M168 280H172V284H168V280Z" fill="#8B8B9C"/>
<path d="M188 280H192V284H188V280Z" fill="#8B8B9C"/>
<path d="M208 280H212V284H208V280Z" fill="#8B8B9C"/>
<path d="M228 280H232V284H228V280Z" fill="#8B8B9C"/>
<path d="M248 280H252V284H248V280Z" fill="#8B8B9C"/>
<path d="M268 280H272V284H268V280Z" fill="#8B8B9C"/>
<path d="M288 280H292V284H288V280Z" fill="#8B8B9C"/>
<path d="M308 280H312V284H308V280Z" fill="#8B8B9C"/>
<path d="M328 280H332V284H328V280Z" fill="#8B8B9C"/>
<path d="M348 280H352V284H348V280Z" fill="#8B8B9C"/>
<path d="M368 280H372V284H368V280Z" fill="#8B8B9C"/>
<path d="M388 280H392V284H388V280Z" fill="#8B8B9C"/>
<path d="M-12 300H-8V304H-12V300Z" fill="#8B8B9C"/>
<path d="M8 300H12V304H8V300Z" fill="#8B8B9C"/>
<path d="M28 300H32V304H28V300Z" fill="#8B8B9C"/>
<path d="M48 300H52V304H48V300Z" fill="#8B8B9C"/>
<path d="M68 300H72V304H68V300Z" fill="#8B8B9C"/>
<path d="M88 300H92V304H88V300Z" fill="#8B8B9C"/>
<path d="M108 300H112V304H108V300Z" fill="#8B8B9C"/>
<path d="M128 300H132V304H128V300Z" fill="#8B8B9C"/>
<path d="M148 300H152V304H148V300Z" fill="#8B8B9C"/>
<path d="M168 300H172V304H168V300Z" fill="#8B8B9C"/>
<path d="M188 300H192V304H188V300Z" fill="#8B8B9C"/>
<path d="M208 300H212V304H208V300Z" fill="#8B8B9C"/>
<path d="M228 300H232V304H228V300Z" fill="#8B8B9C"/>
<path d="M248 300H252V304H248V300Z" fill="#8B8B9C"/>
<path d="M268 300H272V304H268V300Z" fill="#8B8B9C"/>
<path d="M288 300H292V304H288V300Z" fill="#8B8B9C"/>
<path d="M308 300H312V304H308V300Z" fill="#8B8B9C"/>
<path d="M328 300H332V304H328V300Z" fill="#8B8B9C"/>
<path d="M348 300H352V304H348V300Z" fill="#8B8B9C"/>
<path d="M368 300H372V304H368V300Z" fill="#8B8B9C"/>
<path d="M388 300H392V304H388V300Z" fill="#8B8B9C"/>
<path d="M-12 320H-8V324H-12V320Z" fill="#8B8B9C"/>
<path d="M8 320H12V324H8V320Z" fill="#8B8B9C"/>
<path d="M28 320H32V324H28V320Z" fill="#8B8B9C"/>
<path d="M48 320H52V324H48V320Z" fill="#8B8B9C"/>
<path d="M68 320H72V324H68V320Z" fill="#8B8B9C"/>
<path d="M88 320H92V324H88V320Z" fill="#8B8B9C"/>
<path d="M108 320H112V324H108V320Z" fill="#8B8B9C"/>
<path d="M128 320H132V324H128V320Z" fill="#8B8B9C"/>
<path d="M148 320H152V324H148V320Z" fill="#8B8B9C"/>
<path d="M168 320H172V324H168V320Z" fill="#8B8B9C"/>
<path d="M188 320H192V324H188V320Z" fill="#8B8B9C"/>
<path d="M208 320H212V324H208V320Z" fill="#8B8B9C"/>
<path d="M228 320H232V324H228V320Z" fill="#8B8B9C"/>
<path d="M248 320H252V324H248V320Z" fill="#8B8B9C"/>
<path d="M268 320H272V324H268V320Z" fill="#8B8B9C"/>
<path d="M288 320H292V324H288V320Z" fill="#8B8B9C"/>
<path d="M308 320H312V324H308V320Z" fill="#8B8B9C"/>
<path d="M328 320H332V324H328V320Z" fill="#8B8B9C"/>
<path d="M348 320H352V324H348V320Z" fill="#8B8B9C"/>
<path d="M368 320H372V324H368V320Z" fill="#8B8B9C"/>
<path d="M388 320H392V324H388V320Z" fill="#8B8B9C"/>
<path d="M-12 340H-8V344H-12V340Z" fill="#8B8B9C"/>
<path d="M8 340H12V344H8V340Z" fill="#8B8B9C"/>
<path d="M28 340H32V344H28V340Z" fill="#8B8B9C"/>
<path d="M48 340H52V344H48V340Z" fill="#8B8B9C"/>
<path d="M68 340H72V344H68V340Z" fill="#8B8B9C"/>
<path d="M88 340H92V344H88V340Z" fill="#8B8B9C"/>
<path d="M108 340H112V344H108V340Z" fill="#8B8B9C"/>
<path d="M128 340H132V344H128V340Z" fill="#8B8B9C"/>
<path d="M148 340H152V344H148V340Z" fill="#8B8B9C"/>
<path d="M168 340H172V344H168V340Z" fill="#8B8B9C"/>
<path d="M188 340H192V344H188V340Z" fill="#8B8B9C"/>
<path d="M208 340H212V344H208V340Z" fill="#8B8B9C"/>
<path d="M228 340H232V344H228V340Z" fill="#8B8B9C"/>
<path d="M248 340H252V344H248V340Z" fill="#8B8B9C"/>
<path d="M268 340H272V344H268V340Z" fill="#8B8B9C"/>
<path d="M288 340H292V344H288V340Z" fill="#8B8B9C"/>
<path d="M308 340H312V344H308V340Z" fill="#8B8B9C"/>
<path d="M328 340H332V344H328V340Z" fill="#8B8B9C"/>
<path d="M348 340H352V344H348V340Z" fill="#8B8B9C"/>
<path d="M368 340H372V344H368V340Z" fill="#8B8B9C"/>
<path d="M388 340H392V344H388V340Z" fill="#8B8B9C"/>
<path d="M-12 360H-8V364H-12V360Z" fill="#8B8B9C"/>
<path d="M8 360H12V364H8V360Z" fill="#8B8B9C"/>
<path d="M28 360H32V364H28V360Z" fill="#8B8B9C"/>
<path d="M48 360H52V364H48V360Z" fill="#8B8B9C"/>
<path d="M68 360H72V364H68V360Z" fill="#8B8B9C"/>
<path d="M88 360H92V364H88V360Z" fill="#8B8B9C"/>
<path d="M108 360H112V364H108V360Z" fill="#8B8B9C"/>
<path d="M128 360H132V364H128V360Z" fill="#8B8B9C"/>
<path d="M148 360H152V364H148V360Z" fill="#8B8B9C"/>
<path d="M168 360H172V364H168V360Z" fill="#8B8B9C"/>
<path d="M188 360H192V364H188V360Z" fill="#8B8B9C"/>
<path d="M208 360H212V364H208V360Z" fill="#8B8B9C"/>
<path d="M228 360H232V364H228V360Z" fill="#8B8B9C"/>
<path d="M248 360H252V364H248V360Z" fill="#8B8B9C"/>
<path d="M268 360H272V364H268V360Z" fill="#8B8B9C"/>
<path d="M288 360H292V364H288V360Z" fill="#8B8B9C"/>
<path d="M308 360H312V364H308V360Z" fill="#8B8B9C"/>
<path d="M328 360H332V364H328V360Z" fill="#8B8B9C"/>
<path d="M348 360H352V364H348V360Z" fill="#8B8B9C"/>
<path d="M368 360H372V364H368V360Z" fill="#8B8B9C"/>
<path d="M388 360H392V364H388V360Z" fill="#8B8B9C"/>
<path d="M-12 380H-8V384H-12V380Z" fill="#8B8B9C"/>
<path d="M8 380H12V384H8V380Z" fill="#8B8B9C"/>
<path d="M28 380H32V384H28V380Z" fill="#8B8B9C"/>
<path d="M48 380H52V384H48V380Z" fill="#8B8B9C"/>
<path d="M68 380H72V384H68V380Z" fill="#8B8B9C"/>
<path d="M88 380H92V384H88V380Z" fill="#8B8B9C"/>
<path d="M108 380H112V384H108V380Z" fill="#8B8B9C"/>
<path d="M128 380H132V384H128V380Z" fill="#8B8B9C"/>
<path d="M148 380H152V384H148V380Z" fill="#8B8B9C"/>
<path d="M168 380H172V384H168V380Z" fill="#8B8B9C"/>
<path d="M188 380H192V384H188V380Z" fill="#8B8B9C"/>
<path d="M208 380H212V384H208V380Z" fill="#8B8B9C"/>
<path d="M228 380H232V384H228V380Z" fill="#8B8B9C"/>
<path d="M248 380H252V384H248V380Z" fill="#8B8B9C"/>
<path d="M268 380H272V384H268V380Z" fill="#8B8B9C"/>
<path d="M288 380H292V384H288V380Z" fill="#8B8B9C"/>
<path d="M308 380H312V384H308V380Z" fill="#8B8B9C"/>
<path d="M328 380H332V384H328V380Z" fill="#8B8B9C"/>
<path d="M348 380H352V384H348V380Z" fill="#8B8B9C"/>
<path d="M368 380H372V384H368V380Z" fill="#8B8B9C"/>
<path d="M388 380H392V384H388V380Z" fill="#8B8B9C"/>
<path d="M-12 400H-8V404H-12V400Z" fill="#8B8B9C"/>
<path d="M8 400H12V404H8V400Z" fill="#8B8B9C"/>
<path d="M28 400H32V404H28V400Z" fill="#8B8B9C"/>
<path d="M48 400H52V404H48V400Z" fill="#8B8B9C"/>
<path d="M68 400H72V404H68V400Z" fill="#8B8B9C"/>
<path d="M88 400H92V404H88V400Z" fill="#8B8B9C"/>
<path d="M108 400H112V404H108V400Z" fill="#8B8B9C"/>
<path d="M128 400H132V404H128V400Z" fill="#8B8B9C"/>
<path d="M148 400H152V404H148V400Z" fill="#8B8B9C"/>
<path d="M168 400H172V404H168V400Z" fill="#8B8B9C"/>
<path d="M188 400H192V404H188V400Z" fill="#8B8B9C"/>
<path d="M208 400H212V404H208V400Z" fill="#8B8B9C"/>
<path d="M228 400H232V404H228V400Z" fill="#8B8B9C"/>
<path d="M248 400H252V404H248V400Z" fill="#8B8B9C"/>
<path d="M268 400H272V404H268V400Z" fill="#8B8B9C"/>
<path d="M288 400H292V404H288V400Z" fill="#8B8B9C"/>
<path d="M308 400H312V404H308V400Z" fill="#8B8B9C"/>
<path d="M328 400H332V404H328V400Z" fill="#8B8B9C"/>
<path d="M348 400H352V404H348V400Z" fill="#8B8B9C"/>
<path d="M368 400H372V404H368V400Z" fill="#8B8B9C"/>
<path d="M388 400H392V404H388V400Z" fill="#8B8B9C"/>
</svg>
