<svg width="692" height="692" viewBox="0 0 692 692" fill="none" xmlns="http://www.w3.org/2000/svg">
<path d="M0 0H6.85149V6.85149H0V0Z" fill="#8B8B9C"/>
<path d="M34.2574 0H41.1089V6.85149H34.2574V0Z" fill="#8B8B9C"/>
<path d="M68.5149 0H75.3663V6.85149H68.5149V0Z" fill="#8B8B9C"/>
<path d="M102.772 0H109.624V6.85149H102.772V0Z" fill="#8B8B9C"/>
<path d="M137.03 0H143.881V6.85149H137.03V0Z" fill="#8B8B9C"/>
<path d="M171.287 0H178.139V6.85149H171.287V0Z" fill="#8B8B9C"/>
<path d="M205.545 0H212.396V6.85149H205.545V0Z" fill="#8B8B9C"/>
<path d="M239.802 0H246.653V6.85149H239.802V0Z" fill="#8B8B9C"/>
<path d="M274.059 0H280.911V6.85149H274.059V0Z" fill="#8B8B9C"/>
<path d="M308.317 0H315.168V6.85149H308.317V0Z" fill="#8B8B9C"/>
<path d="M342.574 0H349.426V6.85149H342.574V0Z" fill="#8B8B9C"/>
<path d="M376.832 0H383.683V6.85149H376.832V0Z" fill="#8B8B9C"/>
<path d="M411.089 0H417.941V6.85149H411.089V0Z" fill="#8B8B9C"/>
<path d="M445.347 0H452.198V6.85149H445.347V0Z" fill="#8B8B9C"/>
<path d="M479.604 0H486.455V6.85149H479.604V0Z" fill="#8B8B9C"/>
<path d="M513.861 0H520.713V6.85149H513.861V0Z" fill="#8B8B9C"/>
<path d="M548.119 0H554.97V6.85149H548.119V0Z" fill="#8B8B9C"/>
<path d="M582.376 0H589.228V6.85149H582.376V0Z" fill="#8B8B9C"/>
<path d="M616.634 0H623.485V6.85149H616.634V0Z" fill="#8B8B9C"/>
<path d="M650.891 0H657.743V6.85149H650.891V0Z" fill="#8B8B9C"/>
<path d="M685.149 0H692V6.85149H685.149V0Z" fill="#8B8B9C"/>
<path d="M0 34.2574H6.85149V41.1089H0V34.2574Z" fill="#8B8B9C"/>
<path d="M34.2574 34.2574H41.1089V41.1089H34.2574V34.2574Z" fill="#8B8B9C"/>
<path d="M68.5149 34.2574H75.3663V41.1089H68.5149V34.2574Z" fill="#8B8B9C"/>
<path d="M102.772 34.2574H109.624V41.1089H102.772V34.2574Z" fill="#8B8B9C"/>
<path d="M137.03 34.2574H143.881V41.1089H137.03V34.2574Z" fill="#8B8B9C"/>
<path d="M171.287 34.2574H178.139V41.1089H171.287V34.2574Z" fill="#8B8B9C"/>
<path d="M205.545 34.2574H212.396V41.1089H205.545V34.2574Z" fill="#8B8B9C"/>
<path d="M239.802 34.2574H246.653V41.1089H239.802V34.2574Z" fill="#8B8B9C"/>
<path d="M274.059 34.2574H280.911V41.1089H274.059V34.2574Z" fill="#8B8B9C"/>
<path d="M308.317 34.2574H315.168V41.1089H308.317V34.2574Z" fill="#8B8B9C"/>
<path d="M342.574 34.2574H349.426V41.1089H342.574V34.2574Z" fill="#8B8B9C"/>
<path d="M376.832 34.2574H383.683V41.1089H376.832V34.2574Z" fill="#8B8B9C"/>
<path d="M411.089 34.2574H417.941V41.1089H411.089V34.2574Z" fill="#8B8B9C"/>
<path d="M445.347 34.2574H452.198V41.1089H445.347V34.2574Z" fill="#8B8B9C"/>
<path d="M479.604 34.2574H486.455V41.1089H479.604V34.2574Z" fill="#8B8B9C"/>
<path d="M513.861 34.2574H520.713V41.1089H513.861V34.2574Z" fill="#8B8B9C"/>
<path d="M548.119 34.2574H554.97V41.1089H548.119V34.2574Z" fill="#8B8B9C"/>
<path d="M582.376 34.2574H589.228V41.1089H582.376V34.2574Z" fill="#8B8B9C"/>
<path d="M616.634 34.2574H623.485V41.1089H616.634V34.2574Z" fill="#8B8B9C"/>
<path d="M650.891 34.2574H657.743V41.1089H650.891V34.2574Z" fill="#8B8B9C"/>
<path d="M685.149 34.2574H692V41.1089H685.149V34.2574Z" fill="#8B8B9C"/>
<path d="M0 68.5149H6.85149V75.3663H0V68.5149Z" fill="#8B8B9C"/>
<path d="M34.2574 68.5149H41.1089V75.3663H34.2574V68.5149Z" fill="#8B8B9C"/>
<path d="M68.5149 68.5149H75.3663V75.3663H68.5149V68.5149Z" fill="#8B8B9C"/>
<path d="M102.772 68.5149H109.624V75.3663H102.772V68.5149Z" fill="#8B8B9C"/>
<path d="M137.03 68.5149H143.881V75.3663H137.03V68.5149Z" fill="#8B8B9C"/>
<path d="M171.287 68.5149H178.139V75.3663H171.287V68.5149Z" fill="#8B8B9C"/>
<path d="M205.545 68.5149H212.396V75.3663H205.545V68.5149Z" fill="#8B8B9C"/>
<path d="M239.802 68.5149H246.653V75.3663H239.802V68.5149Z" fill="#8B8B9C"/>
<path d="M274.059 68.5149H280.911V75.3663H274.059V68.5149Z" fill="#8B8B9C"/>
<path d="M308.317 68.5149H315.168V75.3663H308.317V68.5149Z" fill="#8B8B9C"/>
<path d="M342.574 68.5149H349.426V75.3663H342.574V68.5149Z" fill="#8B8B9C"/>
<path d="M376.832 68.5149H383.683V75.3663H376.832V68.5149Z" fill="#8B8B9C"/>
<path d="M411.089 68.5149H417.941V75.3663H411.089V68.5149Z" fill="#8B8B9C"/>
<path d="M445.347 68.5149H452.198V75.3663H445.347V68.5149Z" fill="#8B8B9C"/>
<path d="M479.604 68.5149H486.455V75.3663H479.604V68.5149Z" fill="#8B8B9C"/>
<path d="M513.861 68.5149H520.713V75.3663H513.861V68.5149Z" fill="#8B8B9C"/>
<path d="M548.119 68.5149H554.97V75.3663H548.119V68.5149Z" fill="#8B8B9C"/>
<path d="M582.376 68.5149H589.228V75.3663H582.376V68.5149Z" fill="#8B8B9C"/>
<path d="M616.634 68.5149H623.485V75.3663H616.634V68.5149Z" fill="#8B8B9C"/>
<path d="M650.891 68.5149H657.743V75.3663H650.891V68.5149Z" fill="#8B8B9C"/>
<path d="M685.149 68.5149H692V75.3663H685.149V68.5149Z" fill="#8B8B9C"/>
<path d="M0 102.772H6.85149V109.624H0V102.772Z" fill="#8B8B9C"/>
<path d="M34.2574 102.772H41.1089V109.624H34.2574V102.772Z" fill="#8B8B9C"/>
<path d="M68.5149 102.772H75.3663V109.624H68.5149V102.772Z" fill="#8B8B9C"/>
<path d="M102.772 102.772H109.624V109.624H102.772V102.772Z" fill="#8B8B9C"/>
<path d="M137.03 102.772H143.881V109.624H137.03V102.772Z" fill="#8B8B9C"/>
<path d="M171.287 102.772H178.139V109.624H171.287V102.772Z" fill="#8B8B9C"/>
<path d="M205.545 102.772H212.396V109.624H205.545V102.772Z" fill="#8B8B9C"/>
<path d="M239.802 102.772H246.653V109.624H239.802V102.772Z" fill="#8B8B9C"/>
<path d="M274.059 102.772H280.911V109.624H274.059V102.772Z" fill="#8B8B9C"/>
<path d="M308.317 102.772H315.168V109.624H308.317V102.772Z" fill="#8B8B9C"/>
<path d="M342.574 102.772H349.426V109.624H342.574V102.772Z" fill="#8B8B9C"/>
<path d="M376.832 102.772H383.683V109.624H376.832V102.772Z" fill="#8B8B9C"/>
<path d="M411.089 102.772H417.941V109.624H411.089V102.772Z" fill="#8B8B9C"/>
<path d="M445.347 102.772H452.198V109.624H445.347V102.772Z" fill="#8B8B9C"/>
<path d="M479.604 102.772H486.455V109.624H479.604V102.772Z" fill="#8B8B9C"/>
<path d="M513.861 102.772H520.713V109.624H513.861V102.772Z" fill="#8B8B9C"/>
<path d="M548.119 102.772H554.97V109.624H548.119V102.772Z" fill="#8B8B9C"/>
<path d="M582.376 102.772H589.228V109.624H582.376V102.772Z" fill="#8B8B9C"/>
<path d="M616.634 102.772H623.485V109.624H616.634V102.772Z" fill="#8B8B9C"/>
<path d="M650.891 102.772H657.743V109.624H650.891V102.772Z" fill="#8B8B9C"/>
<path d="M685.149 102.772H692V109.624H685.149V102.772Z" fill="#8B8B9C"/>
<path d="M0 137.03H6.85149V143.881H0V137.03Z" fill="#8B8B9C"/>
<path d="M34.2574 137.03H41.1089V143.881H34.2574V137.03Z" fill="#8B8B9C"/>
<path d="M68.5149 137.03H75.3663V143.881H68.5149V137.03Z" fill="#8B8B9C"/>
<path d="M102.772 137.03H109.624V143.881H102.772V137.03Z" fill="#8B8B9C"/>
<path d="M137.03 137.03H143.881V143.881H137.03V137.03Z" fill="#8B8B9C"/>
<path d="M171.287 137.03H178.139V143.881H171.287V137.03Z" fill="#8B8B9C"/>
<path d="M205.545 137.03H212.396V143.881H205.545V137.03Z" fill="#8B8B9C"/>
<path d="M239.802 137.03H246.653V143.881H239.802V137.03Z" fill="#8B8B9C"/>
<path d="M274.059 137.03H280.911V143.881H274.059V137.03Z" fill="#8B8B9C"/>
<path d="M308.317 137.03H315.168V143.881H308.317V137.03Z" fill="#8B8B9C"/>
<path d="M342.574 137.03H349.426V143.881H342.574V137.03Z" fill="#8B8B9C"/>
<path d="M376.832 137.03H383.683V143.881H376.832V137.03Z" fill="#8B8B9C"/>
<path d="M411.089 137.03H417.941V143.881H411.089V137.03Z" fill="#8B8B9C"/>
<path d="M445.347 137.03H452.198V143.881H445.347V137.03Z" fill="#8B8B9C"/>
<path d="M479.604 137.03H486.455V143.881H479.604V137.03Z" fill="#8B8B9C"/>
<path d="M513.861 137.03H520.713V143.881H513.861V137.03Z" fill="#8B8B9C"/>
<path d="M548.119 137.03H554.97V143.881H548.119V137.03Z" fill="#8B8B9C"/>
<path d="M582.376 137.03H589.228V143.881H582.376V137.03Z" fill="#8B8B9C"/>
<path d="M616.634 137.03H623.485V143.881H616.634V137.03Z" fill="#8B8B9C"/>
<path d="M650.891 137.03H657.743V143.881H650.891V137.03Z" fill="#8B8B9C"/>
<path d="M685.149 137.03H692V143.881H685.149V137.03Z" fill="#8B8B9C"/>
<path d="M0 171.287H6.85149V178.139H0V171.287Z" fill="#8B8B9C"/>
<path d="M34.2574 171.287H41.1089V178.139H34.2574V171.287Z" fill="#8B8B9C"/>
<path d="M68.5149 171.287H75.3663V178.139H68.5149V171.287Z" fill="#8B8B9C"/>
<path d="M102.772 171.287H109.624V178.139H102.772V171.287Z" fill="#8B8B9C"/>
<path d="M137.03 171.287H143.881V178.139H137.03V171.287Z" fill="#8B8B9C"/>
<path d="M171.287 171.287H178.139V178.139H171.287V171.287Z" fill="#8B8B9C"/>
<path d="M205.545 171.287H212.396V178.139H205.545V171.287Z" fill="#8B8B9C"/>
<path d="M239.802 171.287H246.653V178.139H239.802V171.287Z" fill="#8B8B9C"/>
<path d="M274.059 171.287H280.911V178.139H274.059V171.287Z" fill="#8B8B9C"/>
<path d="M308.317 171.287H315.168V178.139H308.317V171.287Z" fill="#8B8B9C"/>
<path d="M342.574 171.287H349.426V178.139H342.574V171.287Z" fill="#8B8B9C"/>
<path d="M376.832 171.287H383.683V178.139H376.832V171.287Z" fill="#8B8B9C"/>
<path d="M411.089 171.287H417.941V178.139H411.089V171.287Z" fill="#8B8B9C"/>
<path d="M445.347 171.287H452.198V178.139H445.347V171.287Z" fill="#8B8B9C"/>
<path d="M479.604 171.287H486.455V178.139H479.604V171.287Z" fill="#8B8B9C"/>
<path d="M513.861 171.287H520.713V178.139H513.861V171.287Z" fill="#8B8B9C"/>
<path d="M548.119 171.287H554.97V178.139H548.119V171.287Z" fill="#8B8B9C"/>
<path d="M582.376 171.287H589.228V178.139H582.376V171.287Z" fill="#8B8B9C"/>
<path d="M616.634 171.287H623.485V178.139H616.634V171.287Z" fill="#8B8B9C"/>
<path d="M650.891 171.287H657.743V178.139H650.891V171.287Z" fill="#8B8B9C"/>
<path d="M685.149 171.287H692V178.139H685.149V171.287Z" fill="#8B8B9C"/>
<path d="M0 205.545H6.85149V212.396H0V205.545Z" fill="#8B8B9C"/>
<path d="M34.2574 205.545H41.1089V212.396H34.2574V205.545Z" fill="#8B8B9C"/>
<path d="M68.5149 205.545H75.3663V212.396H68.5149V205.545Z" fill="#8B8B9C"/>
<path d="M102.772 205.545H109.624V212.396H102.772V205.545Z" fill="#8B8B9C"/>
<path d="M137.03 205.545H143.881V212.396H137.03V205.545Z" fill="#8B8B9C"/>
<path d="M171.287 205.545H178.139V212.396H171.287V205.545Z" fill="#8B8B9C"/>
<path d="M205.545 205.545H212.396V212.396H205.545V205.545Z" fill="#8B8B9C"/>
<path d="M239.802 205.545H246.653V212.396H239.802V205.545Z" fill="#8B8B9C"/>
<path d="M274.059 205.545H280.911V212.396H274.059V205.545Z" fill="#8B8B9C"/>
<path d="M308.317 205.545H315.168V212.396H308.317V205.545Z" fill="#8B8B9C"/>
<path d="M342.574 205.545H349.426V212.396H342.574V205.545Z" fill="#8B8B9C"/>
<path d="M376.832 205.545H383.683V212.396H376.832V205.545Z" fill="#8B8B9C"/>
<path d="M411.089 205.545H417.941V212.396H411.089V205.545Z" fill="#8B8B9C"/>
<path d="M445.347 205.545H452.198V212.396H445.347V205.545Z" fill="#8B8B9C"/>
<path d="M479.604 205.545H486.455V212.396H479.604V205.545Z" fill="#8B8B9C"/>
<path d="M513.861 205.545H520.713V212.396H513.861V205.545Z" fill="#8B8B9C"/>
<path d="M548.119 205.545H554.97V212.396H548.119V205.545Z" fill="#8B8B9C"/>
<path d="M582.376 205.545H589.228V212.396H582.376V205.545Z" fill="#8B8B9C"/>
<path d="M616.634 205.545H623.485V212.396H616.634V205.545Z" fill="#8B8B9C"/>
<path d="M650.891 205.545H657.743V212.396H650.891V205.545Z" fill="#8B8B9C"/>
<path d="M685.149 205.545H692V212.396H685.149V205.545Z" fill="#8B8B9C"/>
<path d="M0 239.802H6.85149V246.653H0V239.802Z" fill="#8B8B9C"/>
<path d="M34.2574 239.802H41.1089V246.653H34.2574V239.802Z" fill="#8B8B9C"/>
<path d="M68.5149 239.802H75.3663V246.653H68.5149V239.802Z" fill="#8B8B9C"/>
<path d="M102.772 239.802H109.624V246.653H102.772V239.802Z" fill="#8B8B9C"/>
<path d="M137.03 239.802H143.881V246.653H137.03V239.802Z" fill="#8B8B9C"/>
<path d="M171.287 239.802H178.139V246.653H171.287V239.802Z" fill="#8B8B9C"/>
<path d="M205.545 239.802H212.396V246.653H205.545V239.802Z" fill="#8B8B9C"/>
<path d="M239.802 239.802H246.653V246.653H239.802V239.802Z" fill="#8B8B9C"/>
<path d="M274.059 239.802H280.911V246.653H274.059V239.802Z" fill="#8B8B9C"/>
<path d="M308.317 239.802H315.168V246.653H308.317V239.802Z" fill="#8B8B9C"/>
<path d="M342.574 239.802H349.426V246.653H342.574V239.802Z" fill="#8B8B9C"/>
<path d="M376.832 239.802H383.683V246.653H376.832V239.802Z" fill="#8B8B9C"/>
<path d="M411.089 239.802H417.941V246.653H411.089V239.802Z" fill="#8B8B9C"/>
<path d="M445.347 239.802H452.198V246.653H445.347V239.802Z" fill="#8B8B9C"/>
<path d="M479.604 239.802H486.455V246.653H479.604V239.802Z" fill="#8B8B9C"/>
<path d="M513.861 239.802H520.713V246.653H513.861V239.802Z" fill="#8B8B9C"/>
<path d="M548.119 239.802H554.97V246.653H548.119V239.802Z" fill="#8B8B9C"/>
<path d="M582.376 239.802H589.228V246.653H582.376V239.802Z" fill="#8B8B9C"/>
<path d="M616.634 239.802H623.485V246.653H616.634V239.802Z" fill="#8B8B9C"/>
<path d="M650.891 239.802H657.743V246.653H650.891V239.802Z" fill="#8B8B9C"/>
<path d="M685.149 239.802H692V246.653H685.149V239.802Z" fill="#8B8B9C"/>
<path d="M0 274.059H6.85149V280.911H0V274.059Z" fill="#8B8B9C"/>
<path d="M34.2574 274.059H41.1089V280.911H34.2574V274.059Z" fill="#8B8B9C"/>
<path d="M68.5149 274.059H75.3663V280.911H68.5149V274.059Z" fill="#8B8B9C"/>
<path d="M102.772 274.059H109.624V280.911H102.772V274.059Z" fill="#8B8B9C"/>
<path d="M137.03 274.059H143.881V280.911H137.03V274.059Z" fill="#8B8B9C"/>
<path d="M171.287 274.059H178.139V280.911H171.287V274.059Z" fill="#8B8B9C"/>
<path d="M205.545 274.059H212.396V280.911H205.545V274.059Z" fill="#8B8B9C"/>
<path d="M239.802 274.059H246.653V280.911H239.802V274.059Z" fill="#8B8B9C"/>
<path d="M274.059 274.059H280.911V280.911H274.059V274.059Z" fill="#8B8B9C"/>
<path d="M308.317 274.059H315.168V280.911H308.317V274.059Z" fill="#8B8B9C"/>
<path d="M342.574 274.059H349.426V280.911H342.574V274.059Z" fill="#8B8B9C"/>
<path d="M376.832 274.059H383.683V280.911H376.832V274.059Z" fill="#8B8B9C"/>
<path d="M411.089 274.059H417.941V280.911H411.089V274.059Z" fill="#8B8B9C"/>
<path d="M445.347 274.059H452.198V280.911H445.347V274.059Z" fill="#8B8B9C"/>
<path d="M479.604 274.059H486.455V280.911H479.604V274.059Z" fill="#8B8B9C"/>
<path d="M513.861 274.059H520.713V280.911H513.861V274.059Z" fill="#8B8B9C"/>
<path d="M548.119 274.059H554.97V280.911H548.119V274.059Z" fill="#8B8B9C"/>
<path d="M582.376 274.059H589.228V280.911H582.376V274.059Z" fill="#8B8B9C"/>
<path d="M616.634 274.059H623.485V280.911H616.634V274.059Z" fill="#8B8B9C"/>
<path d="M650.891 274.059H657.743V280.911H650.891V274.059Z" fill="#8B8B9C"/>
<path d="M685.149 274.059H692V280.911H685.149V274.059Z" fill="#8B8B9C"/>
<path d="M0 308.317H6.85149V315.168H0V308.317Z" fill="#8B8B9C"/>
<path d="M34.2574 308.317H41.1089V315.168H34.2574V308.317Z" fill="#8B8B9C"/>
<path d="M68.5149 308.317H75.3663V315.168H68.5149V308.317Z" fill="#8B8B9C"/>
<path d="M102.772 308.317H109.624V315.168H102.772V308.317Z" fill="#8B8B9C"/>
<path d="M137.03 308.317H143.881V315.168H137.03V308.317Z" fill="#8B8B9C"/>
<path d="M171.287 308.317H178.139V315.168H171.287V308.317Z" fill="#8B8B9C"/>
<path d="M205.545 308.317H212.396V315.168H205.545V308.317Z" fill="#8B8B9C"/>
<path d="M239.802 308.317H246.653V315.168H239.802V308.317Z" fill="#8B8B9C"/>
<path d="M274.059 308.317H280.911V315.168H274.059V308.317Z" fill="#8B8B9C"/>
<path d="M308.317 308.317H315.168V315.168H308.317V308.317Z" fill="#8B8B9C"/>
<path d="M342.574 308.317H349.426V315.168H342.574V308.317Z" fill="#8B8B9C"/>
<path d="M376.832 308.317H383.683V315.168H376.832V308.317Z" fill="#8B8B9C"/>
<path d="M411.089 308.317H417.941V315.168H411.089V308.317Z" fill="#8B8B9C"/>
<path d="M445.347 308.317H452.198V315.168H445.347V308.317Z" fill="#8B8B9C"/>
<path d="M479.604 308.317H486.455V315.168H479.604V308.317Z" fill="#8B8B9C"/>
<path d="M513.861 308.317H520.713V315.168H513.861V308.317Z" fill="#8B8B9C"/>
<path d="M548.119 308.317H554.97V315.168H548.119V308.317Z" fill="#8B8B9C"/>
<path d="M582.376 308.317H589.228V315.168H582.376V308.317Z" fill="#8B8B9C"/>
<path d="M616.634 308.317H623.485V315.168H616.634V308.317Z" fill="#8B8B9C"/>
<path d="M650.891 308.317H657.743V315.168H650.891V308.317Z" fill="#8B8B9C"/>
<path d="M685.149 308.317H692V315.168H685.149V308.317Z" fill="#8B8B9C"/>
<path d="M0 342.574H6.85149V349.426H0V342.574Z" fill="#8B8B9C"/>
<path d="M34.2574 342.574H41.1089V349.426H34.2574V342.574Z" fill="#8B8B9C"/>
<path d="M68.5149 342.574H75.3663V349.426H68.5149V342.574Z" fill="#8B8B9C"/>
<path d="M102.772 342.574H109.624V349.426H102.772V342.574Z" fill="#8B8B9C"/>
<path d="M137.03 342.574H143.881V349.426H137.03V342.574Z" fill="#8B8B9C"/>
<path d="M171.287 342.574H178.139V349.426H171.287V342.574Z" fill="#8B8B9C"/>
<path d="M205.545 342.574H212.396V349.426H205.545V342.574Z" fill="#8B8B9C"/>
<path d="M239.802 342.574H246.653V349.426H239.802V342.574Z" fill="#8B8B9C"/>
<path d="M274.059 342.574H280.911V349.426H274.059V342.574Z" fill="#8B8B9C"/>
<path d="M308.317 342.574H315.168V349.426H308.317V342.574Z" fill="#8B8B9C"/>
<path d="M342.574 342.574H349.426V349.426H342.574V342.574Z" fill="#8B8B9C"/>
<path d="M376.832 342.574H383.683V349.426H376.832V342.574Z" fill="#8B8B9C"/>
<path d="M411.089 342.574H417.941V349.426H411.089V342.574Z" fill="#8B8B9C"/>
<path d="M445.347 342.574H452.198V349.426H445.347V342.574Z" fill="#8B8B9C"/>
<path d="M479.604 342.574H486.455V349.426H479.604V342.574Z" fill="#8B8B9C"/>
<path d="M513.861 342.574H520.713V349.426H513.861V342.574Z" fill="#8B8B9C"/>
<path d="M548.119 342.574H554.97V349.426H548.119V342.574Z" fill="#8B8B9C"/>
<path d="M582.376 342.574H589.228V349.426H582.376V342.574Z" fill="#8B8B9C"/>
<path d="M616.634 342.574H623.485V349.426H616.634V342.574Z" fill="#8B8B9C"/>
<path d="M650.891 342.574H657.743V349.426H650.891V342.574Z" fill="#8B8B9C"/>
<path d="M685.149 342.574H692V349.426H685.149V342.574Z" fill="#8B8B9C"/>
<path d="M0 376.832H6.85149V383.683H0V376.832Z" fill="#8B8B9C"/>
<path d="M34.2574 376.832H41.1089V383.683H34.2574V376.832Z" fill="#8B8B9C"/>
<path d="M68.5149 376.832H75.3663V383.683H68.5149V376.832Z" fill="#8B8B9C"/>
<path d="M102.772 376.832H109.624V383.683H102.772V376.832Z" fill="#8B8B9C"/>
<path d="M137.03 376.832H143.881V383.683H137.03V376.832Z" fill="#8B8B9C"/>
<path d="M171.287 376.832H178.139V383.683H171.287V376.832Z" fill="#8B8B9C"/>
<path d="M205.545 376.832H212.396V383.683H205.545V376.832Z" fill="#8B8B9C"/>
<path d="M239.802 376.832H246.653V383.683H239.802V376.832Z" fill="#8B8B9C"/>
<path d="M274.059 376.832H280.911V383.683H274.059V376.832Z" fill="#8B8B9C"/>
<path d="M308.317 376.832H315.168V383.683H308.317V376.832Z" fill="#8B8B9C"/>
<path d="M342.574 376.832H349.426V383.683H342.574V376.832Z" fill="#8B8B9C"/>
<path d="M376.832 376.832H383.683V383.683H376.832V376.832Z" fill="#8B8B9C"/>
<path d="M411.089 376.832H417.941V383.683H411.089V376.832Z" fill="#8B8B9C"/>
<path d="M445.347 376.832H452.198V383.683H445.347V376.832Z" fill="#8B8B9C"/>
<path d="M479.604 376.832H486.455V383.683H479.604V376.832Z" fill="#8B8B9C"/>
<path d="M513.861 376.832H520.713V383.683H513.861V376.832Z" fill="#8B8B9C"/>
<path d="M548.119 376.832H554.97V383.683H548.119V376.832Z" fill="#8B8B9C"/>
<path d="M582.376 376.832H589.228V383.683H582.376V376.832Z" fill="#8B8B9C"/>
<path d="M616.634 376.832H623.485V383.683H616.634V376.832Z" fill="#8B8B9C"/>
<path d="M650.891 376.832H657.743V383.683H650.891V376.832Z" fill="#8B8B9C"/>
<path d="M685.149 376.832H692V383.683H685.149V376.832Z" fill="#8B8B9C"/>
<path d="M0 411.089H6.85149V417.941H0V411.089Z" fill="#8B8B9C"/>
<path d="M34.2574 411.089H41.1089V417.941H34.2574V411.089Z" fill="#8B8B9C"/>
<path d="M68.5149 411.089H75.3663V417.941H68.5149V411.089Z" fill="#8B8B9C"/>
<path d="M102.772 411.089H109.624V417.941H102.772V411.089Z" fill="#8B8B9C"/>
<path d="M137.03 411.089H143.881V417.941H137.03V411.089Z" fill="#8B8B9C"/>
<path d="M171.287 411.089H178.139V417.941H171.287V411.089Z" fill="#8B8B9C"/>
<path d="M205.545 411.089H212.396V417.941H205.545V411.089Z" fill="#8B8B9C"/>
<path d="M239.802 411.089H246.653V417.941H239.802V411.089Z" fill="#8B8B9C"/>
<path d="M274.059 411.089H280.911V417.941H274.059V411.089Z" fill="#8B8B9C"/>
<path d="M308.317 411.089H315.168V417.941H308.317V411.089Z" fill="#8B8B9C"/>
<path d="M342.574 411.089H349.426V417.941H342.574V411.089Z" fill="#8B8B9C"/>
<path d="M376.832 411.089H383.683V417.941H376.832V411.089Z" fill="#8B8B9C"/>
<path d="M411.089 411.089H417.941V417.941H411.089V411.089Z" fill="#8B8B9C"/>
<path d="M445.347 411.089H452.198V417.941H445.347V411.089Z" fill="#8B8B9C"/>
<path d="M479.604 411.089H486.455V417.941H479.604V411.089Z" fill="#8B8B9C"/>
<path d="M513.861 411.089H520.713V417.941H513.861V411.089Z" fill="#8B8B9C"/>
<path d="M548.119 411.089H554.97V417.941H548.119V411.089Z" fill="#8B8B9C"/>
<path d="M582.376 411.089H589.228V417.941H582.376V411.089Z" fill="#8B8B9C"/>
<path d="M616.634 411.089H623.485V417.941H616.634V411.089Z" fill="#8B8B9C"/>
<path d="M650.891 411.089H657.743V417.941H650.891V411.089Z" fill="#8B8B9C"/>
<path d="M685.149 411.089H692V417.941H685.149V411.089Z" fill="#8B8B9C"/>
<path d="M0 445.347H6.85149V452.198H0V445.347Z" fill="#8B8B9C"/>
<path d="M34.2574 445.347H41.1089V452.198H34.2574V445.347Z" fill="#8B8B9C"/>
<path d="M68.5149 445.347H75.3663V452.198H68.5149V445.347Z" fill="#8B8B9C"/>
<path d="M102.772 445.347H109.624V452.198H102.772V445.347Z" fill="#8B8B9C"/>
<path d="M137.03 445.347H143.881V452.198H137.03V445.347Z" fill="#8B8B9C"/>
<path d="M171.287 445.347H178.139V452.198H171.287V445.347Z" fill="#8B8B9C"/>
<path d="M205.545 445.347H212.396V452.198H205.545V445.347Z" fill="#8B8B9C"/>
<path d="M239.802 445.347H246.653V452.198H239.802V445.347Z" fill="#8B8B9C"/>
<path d="M274.059 445.347H280.911V452.198H274.059V445.347Z" fill="#8B8B9C"/>
<path d="M308.317 445.347H315.168V452.198H308.317V445.347Z" fill="#8B8B9C"/>
<path d="M342.574 445.347H349.426V452.198H342.574V445.347Z" fill="#8B8B9C"/>
<path d="M376.832 445.347H383.683V452.198H376.832V445.347Z" fill="#8B8B9C"/>
<path d="M411.089 445.347H417.941V452.198H411.089V445.347Z" fill="#8B8B9C"/>
<path d="M445.347 445.347H452.198V452.198H445.347V445.347Z" fill="#8B8B9C"/>
<path d="M479.604 445.347H486.455V452.198H479.604V445.347Z" fill="#8B8B9C"/>
<path d="M513.861 445.347H520.713V452.198H513.861V445.347Z" fill="#8B8B9C"/>
<path d="M548.119 445.347H554.97V452.198H548.119V445.347Z" fill="#8B8B9C"/>
<path d="M582.376 445.347H589.228V452.198H582.376V445.347Z" fill="#8B8B9C"/>
<path d="M616.634 445.347H623.485V452.198H616.634V445.347Z" fill="#8B8B9C"/>
<path d="M650.891 445.347H657.743V452.198H650.891V445.347Z" fill="#8B8B9C"/>
<path d="M685.149 445.347H692V452.198H685.149V445.347Z" fill="#8B8B9C"/>
<path d="M0 479.604H6.85149V486.455H0V479.604Z" fill="#8B8B9C"/>
<path d="M34.2574 479.604H41.1089V486.455H34.2574V479.604Z" fill="#8B8B9C"/>
<path d="M68.5149 479.604H75.3663V486.455H68.5149V479.604Z" fill="#8B8B9C"/>
<path d="M102.772 479.604H109.624V486.455H102.772V479.604Z" fill="#8B8B9C"/>
<path d="M137.03 479.604H143.881V486.455H137.03V479.604Z" fill="#8B8B9C"/>
<path d="M171.287 479.604H178.139V486.455H171.287V479.604Z" fill="#8B8B9C"/>
<path d="M205.545 479.604H212.396V486.455H205.545V479.604Z" fill="#8B8B9C"/>
<path d="M239.802 479.604H246.653V486.455H239.802V479.604Z" fill="#8B8B9C"/>
<path d="M274.059 479.604H280.911V486.455H274.059V479.604Z" fill="#8B8B9C"/>
<path d="M308.317 479.604H315.168V486.455H308.317V479.604Z" fill="#8B8B9C"/>
<path d="M342.574 479.604H349.426V486.455H342.574V479.604Z" fill="#8B8B9C"/>
<path d="M376.832 479.604H383.683V486.455H376.832V479.604Z" fill="#8B8B9C"/>
<path d="M411.089 479.604H417.941V486.455H411.089V479.604Z" fill="#8B8B9C"/>
<path d="M445.347 479.604H452.198V486.455H445.347V479.604Z" fill="#8B8B9C"/>
<path d="M479.604 479.604H486.455V486.455H479.604V479.604Z" fill="#8B8B9C"/>
<path d="M513.861 479.604H520.713V486.455H513.861V479.604Z" fill="#8B8B9C"/>
<path d="M548.119 479.604H554.97V486.455H548.119V479.604Z" fill="#8B8B9C"/>
<path d="M582.376 479.604H589.228V486.455H582.376V479.604Z" fill="#8B8B9C"/>
<path d="M616.634 479.604H623.485V486.455H616.634V479.604Z" fill="#8B8B9C"/>
<path d="M650.891 479.604H657.743V486.455H650.891V479.604Z" fill="#8B8B9C"/>
<path d="M685.149 479.604H692V486.455H685.149V479.604Z" fill="#8B8B9C"/>
<path d="M0 513.861H6.85149V520.713H0V513.861Z" fill="#8B8B9C"/>
<path d="M34.2574 513.861H41.1089V520.713H34.2574V513.861Z" fill="#8B8B9C"/>
<path d="M68.5149 513.861H75.3663V520.713H68.5149V513.861Z" fill="#8B8B9C"/>
<path d="M102.772 513.861H109.624V520.713H102.772V513.861Z" fill="#8B8B9C"/>
<path d="M137.03 513.861H143.881V520.713H137.03V513.861Z" fill="#8B8B9C"/>
<path d="M171.287 513.861H178.139V520.713H171.287V513.861Z" fill="#8B8B9C"/>
<path d="M205.545 513.861H212.396V520.713H205.545V513.861Z" fill="#8B8B9C"/>
<path d="M239.802 513.861H246.653V520.713H239.802V513.861Z" fill="#8B8B9C"/>
<path d="M274.059 513.861H280.911V520.713H274.059V513.861Z" fill="#8B8B9C"/>
<path d="M308.317 513.861H315.168V520.713H308.317V513.861Z" fill="#8B8B9C"/>
<path d="M342.574 513.861H349.426V520.713H342.574V513.861Z" fill="#8B8B9C"/>
<path d="M376.832 513.861H383.683V520.713H376.832V513.861Z" fill="#8B8B9C"/>
<path d="M411.089 513.861H417.941V520.713H411.089V513.861Z" fill="#8B8B9C"/>
<path d="M445.347 513.861H452.198V520.713H445.347V513.861Z" fill="#8B8B9C"/>
<path d="M479.604 513.861H486.455V520.713H479.604V513.861Z" fill="#8B8B9C"/>
<path d="M513.861 513.861H520.713V520.713H513.861V513.861Z" fill="#8B8B9C"/>
<path d="M548.119 513.861H554.97V520.713H548.119V513.861Z" fill="#8B8B9C"/>
<path d="M582.376 513.861H589.228V520.713H582.376V513.861Z" fill="#8B8B9C"/>
<path d="M616.634 513.861H623.485V520.713H616.634V513.861Z" fill="#8B8B9C"/>
<path d="M650.891 513.861H657.743V520.713H650.891V513.861Z" fill="#8B8B9C"/>
<path d="M685.149 513.861H692V520.713H685.149V513.861Z" fill="#8B8B9C"/>
<path d="M0 548.119H6.85149V554.97H0V548.119Z" fill="#8B8B9C"/>
<path d="M34.2574 548.119H41.1089V554.97H34.2574V548.119Z" fill="#8B8B9C"/>
<path d="M68.5149 548.119H75.3663V554.97H68.5149V548.119Z" fill="#8B8B9C"/>
<path d="M102.772 548.119H109.624V554.97H102.772V548.119Z" fill="#8B8B9C"/>
<path d="M137.03 548.119H143.881V554.97H137.03V548.119Z" fill="#8B8B9C"/>
<path d="M171.287 548.119H178.139V554.97H171.287V548.119Z" fill="#8B8B9C"/>
<path d="M205.545 548.119H212.396V554.97H205.545V548.119Z" fill="#8B8B9C"/>
<path d="M239.802 548.119H246.653V554.97H239.802V548.119Z" fill="#8B8B9C"/>
<path d="M274.059 548.119H280.911V554.97H274.059V548.119Z" fill="#8B8B9C"/>
<path d="M308.317 548.119H315.168V554.97H308.317V548.119Z" fill="#8B8B9C"/>
<path d="M342.574 548.119H349.426V554.97H342.574V548.119Z" fill="#8B8B9C"/>
<path d="M376.832 548.119H383.683V554.97H376.832V548.119Z" fill="#8B8B9C"/>
<path d="M411.089 548.119H417.941V554.97H411.089V548.119Z" fill="#8B8B9C"/>
<path d="M445.347 548.119H452.198V554.97H445.347V548.119Z" fill="#8B8B9C"/>
<path d="M479.604 548.119H486.455V554.97H479.604V548.119Z" fill="#8B8B9C"/>
<path d="M513.861 548.119H520.713V554.97H513.861V548.119Z" fill="#8B8B9C"/>
<path d="M548.119 548.119H554.97V554.97H548.119V548.119Z" fill="#8B8B9C"/>
<path d="M582.376 548.119H589.228V554.97H582.376V548.119Z" fill="#8B8B9C"/>
<path d="M616.634 548.119H623.485V554.97H616.634V548.119Z" fill="#8B8B9C"/>
<path d="M650.891 548.119H657.743V554.97H650.891V548.119Z" fill="#8B8B9C"/>
<path d="M685.149 548.119H692V554.97H685.149V548.119Z" fill="#8B8B9C"/>
<path d="M0 582.376H6.85149V589.228H0V582.376Z" fill="#8B8B9C"/>
<path d="M34.2574 582.376H41.1089V589.228H34.2574V582.376Z" fill="#8B8B9C"/>
<path d="M68.5149 582.376H75.3663V589.228H68.5149V582.376Z" fill="#8B8B9C"/>
<path d="M102.772 582.376H109.624V589.228H102.772V582.376Z" fill="#8B8B9C"/>
<path d="M137.03 582.376H143.881V589.228H137.03V582.376Z" fill="#8B8B9C"/>
<path d="M171.287 582.376H178.139V589.228H171.287V582.376Z" fill="#8B8B9C"/>
<path d="M205.545 582.376H212.396V589.228H205.545V582.376Z" fill="#8B8B9C"/>
<path d="M239.802 582.376H246.653V589.228H239.802V582.376Z" fill="#8B8B9C"/>
<path d="M274.059 582.376H280.911V589.228H274.059V582.376Z" fill="#8B8B9C"/>
<path d="M308.317 582.376H315.168V589.228H308.317V582.376Z" fill="#8B8B9C"/>
<path d="M342.574 582.376H349.426V589.228H342.574V582.376Z" fill="#8B8B9C"/>
<path d="M376.832 582.376H383.683V589.228H376.832V582.376Z" fill="#8B8B9C"/>
<path d="M411.089 582.376H417.941V589.228H411.089V582.376Z" fill="#8B8B9C"/>
<path d="M445.347 582.376H452.198V589.228H445.347V582.376Z" fill="#8B8B9C"/>
<path d="M479.604 582.376H486.455V589.228H479.604V582.376Z" fill="#8B8B9C"/>
<path d="M513.861 582.376H520.713V589.228H513.861V582.376Z" fill="#8B8B9C"/>
<path d="M548.119 582.376H554.97V589.228H548.119V582.376Z" fill="#8B8B9C"/>
<path d="M582.376 582.376H589.228V589.228H582.376V582.376Z" fill="#8B8B9C"/>
<path d="M616.634 582.376H623.485V589.228H616.634V582.376Z" fill="#8B8B9C"/>
<path d="M650.891 582.376H657.743V589.228H650.891V582.376Z" fill="#8B8B9C"/>
<path d="M685.149 582.376H692V589.228H685.149V582.376Z" fill="#8B8B9C"/>
<path d="M0 616.634H6.85149V623.485H0V616.634Z" fill="#8B8B9C"/>
<path d="M34.2574 616.634H41.1089V623.485H34.2574V616.634Z" fill="#8B8B9C"/>
<path d="M68.5149 616.634H75.3663V623.485H68.5149V616.634Z" fill="#8B8B9C"/>
<path d="M102.772 616.634H109.624V623.485H102.772V616.634Z" fill="#8B8B9C"/>
<path d="M137.03 616.634H143.881V623.485H137.03V616.634Z" fill="#8B8B9C"/>
<path d="M171.287 616.634H178.139V623.485H171.287V616.634Z" fill="#8B8B9C"/>
<path d="M205.545 616.634H212.396V623.485H205.545V616.634Z" fill="#8B8B9C"/>
<path d="M239.802 616.634H246.653V623.485H239.802V616.634Z" fill="#8B8B9C"/>
<path d="M274.059 616.634H280.911V623.485H274.059V616.634Z" fill="#8B8B9C"/>
<path d="M308.317 616.634H315.168V623.485H308.317V616.634Z" fill="#8B8B9C"/>
<path d="M342.574 616.634H349.426V623.485H342.574V616.634Z" fill="#8B8B9C"/>
<path d="M376.832 616.634H383.683V623.485H376.832V616.634Z" fill="#8B8B9C"/>
<path d="M411.089 616.634H417.941V623.485H411.089V616.634Z" fill="#8B8B9C"/>
<path d="M445.347 616.634H452.198V623.485H445.347V616.634Z" fill="#8B8B9C"/>
<path d="M479.604 616.634H486.455V623.485H479.604V616.634Z" fill="#8B8B9C"/>
<path d="M513.861 616.634H520.713V623.485H513.861V616.634Z" fill="#8B8B9C"/>
<path d="M548.119 616.634H554.97V623.485H548.119V616.634Z" fill="#8B8B9C"/>
<path d="M582.376 616.634H589.228V623.485H582.376V616.634Z" fill="#8B8B9C"/>
<path d="M616.634 616.634H623.485V623.485H616.634V616.634Z" fill="#8B8B9C"/>
<path d="M650.891 616.634H657.743V623.485H650.891V616.634Z" fill="#8B8B9C"/>
<path d="M685.149 616.634H692V623.485H685.149V616.634Z" fill="#8B8B9C"/>
<path d="M0 650.891H6.85149V657.743H0V650.891Z" fill="#8B8B9C"/>
<path d="M34.2574 650.891H41.1089V657.743H34.2574V650.891Z" fill="#8B8B9C"/>
<path d="M68.5149 650.891H75.3663V657.743H68.5149V650.891Z" fill="#8B8B9C"/>
<path d="M102.772 650.891H109.624V657.743H102.772V650.891Z" fill="#8B8B9C"/>
<path d="M137.03 650.891H143.881V657.743H137.03V650.891Z" fill="#8B8B9C"/>
<path d="M171.287 650.891H178.139V657.743H171.287V650.891Z" fill="#8B8B9C"/>
<path d="M205.545 650.891H212.396V657.743H205.545V650.891Z" fill="#8B8B9C"/>
<path d="M239.802 650.891H246.653V657.743H239.802V650.891Z" fill="#8B8B9C"/>
<path d="M274.059 650.891H280.911V657.743H274.059V650.891Z" fill="#8B8B9C"/>
<path d="M308.317 650.891H315.168V657.743H308.317V650.891Z" fill="#8B8B9C"/>
<path d="M342.574 650.891H349.426V657.743H342.574V650.891Z" fill="#8B8B9C"/>
<path d="M376.832 650.891H383.683V657.743H376.832V650.891Z" fill="#8B8B9C"/>
<path d="M411.089 650.891H417.941V657.743H411.089V650.891Z" fill="#8B8B9C"/>
<path d="M445.347 650.891H452.198V657.743H445.347V650.891Z" fill="#8B8B9C"/>
<path d="M479.604 650.891H486.455V657.743H479.604V650.891Z" fill="#8B8B9C"/>
<path d="M513.861 650.891H520.713V657.743H513.861V650.891Z" fill="#8B8B9C"/>
<path d="M548.119 650.891H554.97V657.743H548.119V650.891Z" fill="#8B8B9C"/>
<path d="M582.376 650.891H589.228V657.743H582.376V650.891Z" fill="#8B8B9C"/>
<path d="M616.634 650.891H623.485V657.743H616.634V650.891Z" fill="#8B8B9C"/>
<path d="M650.891 650.891H657.743V657.743H650.891V650.891Z" fill="#8B8B9C"/>
<path d="M685.149 650.891H692V657.743H685.149V650.891Z" fill="#8B8B9C"/>
<path d="M0 685.149H6.85149V692H0V685.149Z" fill="#8B8B9C"/>
<path d="M34.2574 685.149H41.1089V692H34.2574V685.149Z" fill="#8B8B9C"/>
<path d="M68.5149 685.149H75.3663V692H68.5149V685.149Z" fill="#8B8B9C"/>
<path d="M102.772 685.149H109.624V692H102.772V685.149Z" fill="#8B8B9C"/>
<path d="M137.03 685.149H143.881V692H137.03V685.149Z" fill="#8B8B9C"/>
<path d="M171.287 685.149H178.139V692H171.287V685.149Z" fill="#8B8B9C"/>
<path d="M205.545 685.149H212.396V692H205.545V685.149Z" fill="#8B8B9C"/>
<path d="M239.802 685.149H246.653V692H239.802V685.149Z" fill="#8B8B9C"/>
<path d="M274.059 685.149H280.911V692H274.059V685.149Z" fill="#8B8B9C"/>
<path d="M308.317 685.149H315.168V692H308.317V685.149Z" fill="#8B8B9C"/>
<path d="M342.574 685.149H349.426V692H342.574V685.149Z" fill="#8B8B9C"/>
<path d="M376.832 685.149H383.683V692H376.832V685.149Z" fill="#8B8B9C"/>
<path d="M411.089 685.149H417.941V692H411.089V685.149Z" fill="#8B8B9C"/>
<path d="M445.347 685.149H452.198V692H445.347V685.149Z" fill="#8B8B9C"/>
<path d="M479.604 685.149H486.455V692H479.604V685.149Z" fill="#8B8B9C"/>
<path d="M513.861 685.149H520.713V692H513.861V685.149Z" fill="#8B8B9C"/>
<path d="M548.119 685.149H554.97V692H548.119V685.149Z" fill="#8B8B9C"/>
<path d="M582.376 685.149H589.228V692H582.376V685.149Z" fill="#8B8B9C"/>
<path d="M616.634 685.149H623.485V692H616.634V685.149Z" fill="#8B8B9C"/>
<path d="M650.891 685.149H657.743V692H650.891V685.149Z" fill="#8B8B9C"/>
<path d="M685.149 685.149H692V692H685.149V685.149Z" fill="#8B8B9C"/>
</svg>
